<?xml version="1.0" standalone="no"?>
<!DOCTYPE svg PUBLIC "-//W3C//DTD SVG 20010904//EN"
 "http://www.w3.org/TR/2001/REC-SVG-20010904/DTD/svg10.dtd">
<svg version="1.0" xmlns="http://www.w3.org/2000/svg"
 width="558.000000pt" height="552.000000pt" viewBox="0 0 558.000000 552.000000"
 preserveAspectRatio="xMidYMid meet">

<g transform="translate(0.000000,552.000000) scale(0.100000,-0.100000)"
fill="#16aa74" stroke="none">
<path d="M2670 5509 c-868 -37 -1665 -472 -2149 -1174 -228 -329 -393 -757
-462 -1192 -21 -133 -21 -144 -5 -167 23 -36 61 -43 94 -19 24 18 28 33 49
159 141 863 586 1521 1300 1923 251 141 542 242 861 298 146 25 177 27 437 28
319 0 417 -11 671 -75 1054 -267 1772 -1121 1943 -2310 l18 -125 -26 -6 c-14
-4 -56 -7 -92 -8 -98 -2 -104 -11 -119 -191 -52 -638 -288 -1168 -703 -1579
-128 -127 -212 -196 -347 -286 -574 -382 -1283 -507 -1950 -344 -709 174
-1288 682 -1595 1399 -74 173 -167 474 -200 650 -12 62 -16 70 -45 85 -60 31
-107 -15 -95 -92 22 -148 104 -427 182 -623 296 -740 845 -1274 1548 -1505
392 -129 835 -159 1244 -84 1007 185 1777 902 2025 1887 30 119 63 309 71 417
10 132 1 121 107 129 56 5 103 14 117 23 23 15 24 18 18 112 -17 266 -117 679
-235 971 -243 600 -668 1082 -1214 1376 -341 184 -760 303 -1123 320 -60 3
-123 6 -140 7 -16 2 -100 0 -185 -4z"/>
<path d="M2575 5284 c-16 -2 -82 -11 -145 -20 -452 -62 -928 -273 -1280 -568
-531 -445 -830 -1043 -905 -1807 l-6 -67 -96 -4 c-90 -4 -97 -6 -120 -32 -20
-24 -23 -34 -18 -79 78 -680 269 -1198 610 -1652 583 -776 1591 -1173 2590
-1019 1119 173 1978 949 2255 2037 40 158 80 375 80 433 0 43 -30 74 -70 74
-28 0 -70 -29 -70 -49 0 -27 -52 -311 -70 -382 -98 -389 -258 -722 -489 -1019
-81 -105 -301 -327 -400 -405 -417 -327 -886 -513 -1431 -566 -153 -14 -461
-6 -610 16 -811 123 -1460 563 -1861 1260 -186 325 -330 775 -374 1171 l-7 61
93 7 c68 5 99 12 111 24 13 13 20 48 28 152 31 381 110 681 263 985 388 777
1161 1267 2065 1311 451 21 945 -106 1317 -341 210 -132 447 -342 587 -520
253 -322 426 -695 538 -1159 30 -123 44 -165 60 -178 29 -23 51 -23 84 3 36
28 34 62 -13 255 -141 569 -382 1015 -741 1374 -193 194 -388 334 -631 454
-229 114 -471 191 -724 232 -95 15 -546 28 -620 18z"/>
<path d="M1080 3882 c0 -19 477 -2448 485 -2469 3 -10 60 -13 239 -13 215 0
235 1 240 18 2 9 89 404 192 877 103 473 190 863 193 867 3 4 93 -391 200
-877 l195 -885 233 0 c128 0 233 2 233 4 0 13 126 616 158 756 l37 165 285 6
c446 9 525 32 685 193 132 133 197 294 211 526 27 435 -175 774 -496 831 -38
7 -223 13 -446 16 l-381 5 -16 -78 c-9 -44 -83 -403 -163 -799 -80 -396 -147
-721 -149 -723 -2 -2 -6 5 -9 15 -5 18 -306 1568 -306 1578 0 3 -117 5 -260 5
-143 0 -260 -2 -260 -4 0 -11 -352 -1601 -355 -1604 -2 -3 -6 6 -9 19 -8 33
-286 1574 -286 1582 0 4 -101 7 -225 7 -210 0 -225 -1 -225 -18z m2942 -458
c64 -21 122 -75 155 -142 25 -51 28 -67 28 -162 0 -88 -4 -113 -23 -156 -27
-60 -92 -127 -143 -148 -52 -22 -185 -36 -337 -36 -122 0 -133 1 -128 18 3 9
30 150 61 312 30 162 58 306 61 319 l5 24 138 -7 c81 -3 157 -13 183 -22z"/>
</g>
</svg>
